<?xml version="1.0" standalone="no"?>
<!DOCTYPE svg PUBLIC "-//W3C//DTD SVG 20010904//EN"
 "http://www.w3.org/TR/2001/REC-SVG-20010904/DTD/svg10.dtd">
<svg version="1.0" xmlns="http://www.w3.org/2000/svg"
 width="768.000000pt" height="768.000000pt" viewBox="0 0 768.000000 768.000000"
 preserveAspectRatio="xMidYMid meet">
<metadata>
Created by potrace 1.11, written by Peter Selinger 2001-2013
</metadata>
<g transform="translate(0.000000,768.000000) scale(0.100000,-0.100000)"
fill="#000000" stroke="none">
<path d="M3786 7660 c-38 -12 -85 -57 -102 -97 -21 -48 -20 -1075 0 -1124 63
-149 280 -130 314 28 14 66 8 1052 -7 1095 -25 74 -127 122 -205 98z"/>
<path d="M6385 6587 c-35 -8 -91 -60 -426 -396 -362 -361 -388 -389 -396 -431
-17 -84 19 -159 94 -191 48 -21 112 -18 149 6 47 30 756 750 774 785 33 65 7
163 -55 204 -36 24 -95 33 -140 23z"/>
<path d="M1159 6567 c-73 -49 -100 -136 -64 -211 8 -17 185 -201 393 -408 329
-328 382 -378 419 -387 70 -19 133 3 179 64 29 38 39 107 23 155 -12 34 -770
793 -801 802 -52 14 -115 8 -149 -15z"/>
<path d="M3659 5996 c-2 -2 -31 -6 -64 -10 -33 -3 -71 -8 -85 -11 -13 -3 -42
-7 -65 -11 -108 -16 -255 -57 -395 -112 -565 -222 -1011 -669 -1233 -1238 -37
-93 -82 -243 -92 -303 -3 -19 -8 -37 -10 -41 -2 -4 -7 -27 -10 -51 -4 -24 -12
-87 -19 -139 -18 -128 -13 -446 9 -565 8 -49 18 -103 21 -120 27 -164 141
-463 245 -646 74 -127 210 -305 325 -425 336 -347 821 -589 1281 -639 32 -4
69 -8 83 -11 33 -5 348 -5 380 0 14 2 52 7 85 11 48 5 158 25 220 40 91 21
243 70 332 107 83 34 81 18 13 164 -23 49 -49 106 -57 127 -8 20 -19 37 -23
37 -5 0 -50 -16 -102 -36 -102 -39 -294 -91 -367 -100 -25 -3 -57 -7 -71 -10
-46 -10 -324 -12 -410 -3 -633 65 -1199 466 -1467 1038 -55 117 -67 150 -104
276 -30 100 -33 113 -50 215 -23 135 -29 325 -16 465 7 76 34 238 44 270 4 11
8 25 9 30 18 68 37 126 69 205 167 423 498 777 910 975 159 77 368 143 509
161 23 3 70 9 106 13 70 9 333 7 390 -3 19 -3 51 -8 70 -11 172 -25 362 -86
532 -171 91 -45 237 -133 258 -154 3 -3 30 -24 60 -46 71 -53 212 -191 283
-275 199 -240 348 -570 393 -869 2 -14 8 -52 13 -85 10 -63 8 -408 -3 -460 -4
-16 -13 -67 -22 -112 -14 -79 -45 -194 -63 -238 -35 -82 -50 -130 -44 -135 15
-13 294 -132 299 -128 2 3 22 52 44 111 107 282 152 618 126 927 -9 117 -13
138 -52 334 -34 172 -170 489 -284 661 -228 344 -515 599 -865 770 -203 99
-406 166 -595 195 -41 6 -86 14 -100 17 -29 6 -435 14 -441 9z"/>
<path d="M3727 5164 c-1 -1 -29 -5 -62 -9 -188 -21 -396 -98 -560 -208 -364
-243 -586 -642 -599 -1077 l-1 -35 165 0 165 0 8 85 c35 400 300 733 687 865
66 23 175 42 265 48 l40 2 1 167 2 167 -55 -2 c-30 -1 -55 -3 -56 -3z"/>
<path d="M295 4000 c-200 -6 -221 -12 -262 -75 -38 -58 -33 -149 12 -198 57
-61 37 -59 625 -59 522 0 539 1 578 21 118 60 116 233 -4 291 -38 19 -64 20
-405 23 -200 1 -445 0 -544 -3z"/>
<path d="M6515 3999 c-71 -7 -102 -19 -132 -50 -57 -63 -57 -166 0 -227 50
-54 37 -53 612 -54 383 0 543 3 568 11 84 28 126 128 92 217 -23 60 -69 94
-137 100 -76 8 -931 10 -1003 3z"/>
<path d="M1910 2107 c-41 -8 -70 -35 -421 -386 -207 -207 -384 -390 -393 -408
-29 -57 -13 -154 32 -190 68 -55 151 -61 211 -16 77 59 753 746 768 781 28 67
-7 170 -70 203 -37 20 -80 26 -127 16z"/>
<path d="M5675 2106 c-49 -18 -82 -45 -100 -82 -23 -49 -21 -116 4 -156 24
-40 747 -761 778 -777 12 -6 39 -13 61 -15 120 -11 212 119 162 229 -23 53
-757 786 -797 797 -49 14 -77 15 -108 4z"/>
<path d="M3785 1323 c-54 -19 -91 -57 -104 -108 -7 -29 -11 -220 -11 -561 0
-503 1 -519 21 -560 28 -59 77 -88 150 -89 46 0 62 5 92 28 74 56 71 29 71
632 0 606 2 588 -73 638 -47 31 -95 38 -146 20z"/>
</g>
</svg>
